<mxfile host="app.diagrams.net" agent="Mozilla/5.0 (Windows NT 10.0; Win64; x64) AppleWebKit/537.36 (KHTML, like Gecko) Chrome/130.0.0.0 Safari/537.36" version="24.8.4">
  <diagram name="Trang-1" id="UXWeO3AOHdjiO6GPO4TS">
    <mxGraphModel dx="1050" dy="522" grid="1" gridSize="10" guides="1" tooltips="1" connect="1" arrows="1" fold="1" page="1" pageScale="1" pageWidth="827" pageHeight="1169" math="0" shadow="0">
      <root>
        <mxCell id="0" />
        <mxCell id="1" parent="0" />
        <mxCell id="EuXpPbi8LBOhzLdkTvKn-1" value="" style="rounded=0;whiteSpace=wrap;html=1;" vertex="1" parent="1">
          <mxGeometry x="80" y="40" width="600" height="400" as="geometry" />
        </mxCell>
        <mxCell id="EuXpPbi8LBOhzLdkTvKn-3" value="" style="endArrow=none;html=1;rounded=0;entryX=0.149;entryY=0.007;entryDx=0;entryDy=0;entryPerimeter=0;exitX=0.15;exitY=1.001;exitDx=0;exitDy=0;exitPerimeter=0;" edge="1" parent="1" source="EuXpPbi8LBOhzLdkTvKn-1" target="EuXpPbi8LBOhzLdkTvKn-1">
          <mxGeometry width="50" height="50" relative="1" as="geometry">
            <mxPoint x="510" y="290" as="sourcePoint" />
            <mxPoint x="560" y="240" as="targetPoint" />
          </mxGeometry>
        </mxCell>
        <mxCell id="EuXpPbi8LBOhzLdkTvKn-4" value="" style="endArrow=none;html=1;rounded=0;exitX=0.002;exitY=0.209;exitDx=0;exitDy=0;exitPerimeter=0;" edge="1" parent="1">
          <mxGeometry width="50" height="50" relative="1" as="geometry">
            <mxPoint x="80.00000000000004" y="90.00000000000003" as="sourcePoint" />
            <mxPoint x="168.8" y="90.4" as="targetPoint" />
          </mxGeometry>
        </mxCell>
        <mxCell id="EuXpPbi8LBOhzLdkTvKn-5" value="" style="endArrow=none;html=1;rounded=0;exitX=0.002;exitY=0.209;exitDx=0;exitDy=0;exitPerimeter=0;" edge="1" parent="1">
          <mxGeometry width="50" height="50" relative="1" as="geometry">
            <mxPoint x="80.00000000000004" y="130.00000000000003" as="sourcePoint" />
            <mxPoint x="168.8" y="130.4" as="targetPoint" />
          </mxGeometry>
        </mxCell>
        <mxCell id="EuXpPbi8LBOhzLdkTvKn-6" value="" style="endArrow=none;html=1;rounded=0;exitX=0.002;exitY=0.209;exitDx=0;exitDy=0;exitPerimeter=0;" edge="1" parent="1">
          <mxGeometry width="50" height="50" relative="1" as="geometry">
            <mxPoint x="80.00000000000004" y="170.00000000000003" as="sourcePoint" />
            <mxPoint x="168.8" y="170.4" as="targetPoint" />
          </mxGeometry>
        </mxCell>
        <mxCell id="EuXpPbi8LBOhzLdkTvKn-7" value="" style="endArrow=none;html=1;rounded=0;exitX=0.002;exitY=0.209;exitDx=0;exitDy=0;exitPerimeter=0;" edge="1" parent="1">
          <mxGeometry width="50" height="50" relative="1" as="geometry">
            <mxPoint x="80.00000000000004" y="210.00000000000003" as="sourcePoint" />
            <mxPoint x="168.8" y="210.4" as="targetPoint" />
          </mxGeometry>
        </mxCell>
        <mxCell id="EuXpPbi8LBOhzLdkTvKn-11" value="Menu" style="text;html=1;align=center;verticalAlign=middle;resizable=0;points=[];autosize=1;strokeColor=none;fillColor=none;" vertex="1" parent="1">
          <mxGeometry x="100" y="50" width="50" height="30" as="geometry" />
        </mxCell>
        <mxCell id="EuXpPbi8LBOhzLdkTvKn-12" value="Chức năng 1" style="text;html=1;align=center;verticalAlign=middle;resizable=0;points=[];autosize=1;strokeColor=none;fillColor=none;" vertex="1" parent="1">
          <mxGeometry x="80" y="98" width="90" height="30" as="geometry" />
        </mxCell>
        <mxCell id="EuXpPbi8LBOhzLdkTvKn-13" value="Chức năng 2" style="text;html=1;align=center;verticalAlign=middle;resizable=0;points=[];autosize=1;strokeColor=none;fillColor=none;" vertex="1" parent="1">
          <mxGeometry x="80" y="140" width="90" height="30" as="geometry" />
        </mxCell>
        <mxCell id="EuXpPbi8LBOhzLdkTvKn-14" value="Chức năng 3" style="text;html=1;align=center;verticalAlign=middle;resizable=0;points=[];autosize=1;strokeColor=none;fillColor=none;" vertex="1" parent="1">
          <mxGeometry x="80" y="180" width="90" height="30" as="geometry" />
        </mxCell>
        <mxCell id="EuXpPbi8LBOhzLdkTvKn-15" value="" style="endArrow=none;html=1;rounded=0;entryX=0.998;entryY=0.469;entryDx=0;entryDy=0;entryPerimeter=0;" edge="1" parent="1" target="EuXpPbi8LBOhzLdkTvKn-1">
          <mxGeometry width="50" height="50" relative="1" as="geometry">
            <mxPoint x="170" y="230" as="sourcePoint" />
            <mxPoint x="560" y="240" as="targetPoint" />
          </mxGeometry>
        </mxCell>
        <mxCell id="EuXpPbi8LBOhzLdkTvKn-16" value="DataGrid" style="text;html=1;align=center;verticalAlign=middle;whiteSpace=wrap;rounded=0;" vertex="1" parent="1">
          <mxGeometry x="170" y="230" width="60" height="30" as="geometry" />
        </mxCell>
        <mxCell id="EuXpPbi8LBOhzLdkTvKn-17" value="Thông tin 2:" style="text;html=1;align=center;verticalAlign=middle;whiteSpace=wrap;rounded=0;" vertex="1" parent="1">
          <mxGeometry x="195" y="80" width="80" height="30" as="geometry" />
        </mxCell>
        <mxCell id="EuXpPbi8LBOhzLdkTvKn-18" value="Thông tin 1:" style="text;html=1;align=center;verticalAlign=middle;whiteSpace=wrap;rounded=0;" vertex="1" parent="1">
          <mxGeometry x="200" y="50" width="70" height="30" as="geometry" />
        </mxCell>
        <mxCell id="EuXpPbi8LBOhzLdkTvKn-19" value="Thông tin 3:" style="text;html=1;align=center;verticalAlign=middle;whiteSpace=wrap;rounded=0;" vertex="1" parent="1">
          <mxGeometry x="195" y="110" width="80" height="30" as="geometry" />
        </mxCell>
        <mxCell id="EuXpPbi8LBOhzLdkTvKn-20" value="Text" style="text;html=1;align=center;verticalAlign=middle;whiteSpace=wrap;rounded=0;" vertex="1" parent="1">
          <mxGeometry x="290" y="50" width="210" height="30" as="geometry" />
        </mxCell>
        <mxCell id="EuXpPbi8LBOhzLdkTvKn-21" value="Text" style="text;html=1;align=center;verticalAlign=middle;whiteSpace=wrap;rounded=0;" vertex="1" parent="1">
          <mxGeometry x="290" y="80" width="210" height="30" as="geometry" />
        </mxCell>
        <mxCell id="EuXpPbi8LBOhzLdkTvKn-22" value="Text" style="text;html=1;align=center;verticalAlign=middle;whiteSpace=wrap;rounded=0;" vertex="1" parent="1">
          <mxGeometry x="290" y="110" width="210" height="30" as="geometry" />
        </mxCell>
        <mxCell id="EuXpPbi8LBOhzLdkTvKn-23" value="Search" style="text;html=1;align=center;verticalAlign=middle;whiteSpace=wrap;rounded=0;" vertex="1" parent="1">
          <mxGeometry x="170" y="200" width="60" height="30" as="geometry" />
        </mxCell>
        <mxCell id="EuXpPbi8LBOhzLdkTvKn-24" value="Text" style="text;html=1;align=center;verticalAlign=middle;whiteSpace=wrap;rounded=0;" vertex="1" parent="1">
          <mxGeometry x="230" y="200" width="60" height="30" as="geometry" />
        </mxCell>
        <mxCell id="EuXpPbi8LBOhzLdkTvKn-25" value="Thêm" style="text;html=1;align=center;verticalAlign=middle;whiteSpace=wrap;rounded=0;" vertex="1" parent="1">
          <mxGeometry x="180" y="160" width="60" height="30" as="geometry" />
        </mxCell>
        <mxCell id="EuXpPbi8LBOhzLdkTvKn-26" value="Sửa" style="text;html=1;align=center;verticalAlign=middle;whiteSpace=wrap;rounded=0;" vertex="1" parent="1">
          <mxGeometry x="310" y="160" width="60" height="30" as="geometry" />
        </mxCell>
        <mxCell id="EuXpPbi8LBOhzLdkTvKn-27" value="Xóa" style="text;html=1;align=center;verticalAlign=middle;whiteSpace=wrap;rounded=0;" vertex="1" parent="1">
          <mxGeometry x="430" y="160" width="60" height="30" as="geometry" />
        </mxCell>
        <mxCell id="EuXpPbi8LBOhzLdkTvKn-28" value="In" style="text;html=1;align=center;verticalAlign=middle;whiteSpace=wrap;rounded=0;" vertex="1" parent="1">
          <mxGeometry x="540" y="160" width="60" height="30" as="geometry" />
        </mxCell>
      </root>
    </mxGraphModel>
  </diagram>
</mxfile>
